<?xml version="1.0" encoding="UTF-8" standalone="no"?>
<!-- Created with Inkscape (http://www.inkscape.org/) -->

<svg
   xmlns:dc="http://purl.org/dc/elements/1.1/"
   xmlns:cc="http://creativecommons.org/ns#"
   xmlns:rdf="http://www.w3.org/1999/02/22-rdf-syntax-ns#"
   xmlns:svg="http://www.w3.org/2000/svg"
   xmlns="http://www.w3.org/2000/svg"
   xmlns:xlink="http://www.w3.org/1999/xlink"
   xmlns:sodipodi="http://sodipodi.sourceforge.net/DTD/sodipodi-0.dtd"
   xmlns:inkscape="http://www.inkscape.org/namespaces/inkscape"
   width="744.09448819"
   height="1052.3622047"
   id="svg2"
   version="1.1"
   inkscape:version="0.48.4 r9939"
   sodipodi:docname="flash.svg">
  <defs
     id="defs4">
    <linearGradient
       id="linearGradient3061">
      <stop
         style="stop-color:#999999;stop-opacity:1"
         offset="0"
         id="stop3063" />
      <stop
         style="stop-color:#000000;stop-opacity:1"
         offset="1"
         id="stop3065" />
    </linearGradient>
    <linearGradient
       inkscape:collect="always"
       id="linearGradient3051">
      <stop
         style="stop-color:#ffe680;stop-opacity:1"
         offset="0"
         id="stop3053" />
      <stop
         style="stop-color:#ff6600;stop-opacity:1"
         offset="1"
         id="stop3055" />
    </linearGradient>
    <linearGradient
       id="linearGradient3041">
      <stop
         id="stop3043"
         offset="0"
         style="stop-color:#ff5047;stop-opacity:1;" />
      <stop
         id="stop3045"
         offset="1"
         style="stop-color:#800000;stop-opacity:1" />
    </linearGradient>
    <linearGradient
       inkscape:collect="always"
       id="linearGradient3029">
      <stop
         style="stop-color:#ff9955;stop-opacity:1"
         offset="0"
         id="stop3031" />
      <stop
         style="stop-color:#d40000;stop-opacity:1"
         offset="1"
         id="stop3033" />
    </linearGradient>
    <radialGradient
       inkscape:collect="always"
       xlink:href="#linearGradient3029"
       id="radialGradient3035"
       cx="112.086"
       cy="752.08221"
       fx="112.086"
       fy="752.08221"
       r="83.842659"
       gradientTransform="matrix(-1.7578054,0.01100448,-0.00832685,-1.3300849,300.95575,1756.2524)"
       gradientUnits="userSpaceOnUse" />
    <radialGradient
       inkscape:collect="always"
       xlink:href="#linearGradient3041"
       id="radialGradient3039"
       gradientUnits="userSpaceOnUse"
       gradientTransform="matrix(-1.7578054,0.01100448,-0.00832685,-1.3300849,300.95575,1756.2524)"
       cx="111.25298"
       cy="756.37146"
       fx="111.25298"
       fy="756.37146"
       r="83.842659" />
    <radialGradient
       inkscape:collect="always"
       xlink:href="#linearGradient3051"
       id="radialGradient3049"
       gradientUnits="userSpaceOnUse"
       gradientTransform="matrix(-1.7578054,0.01100448,-0.00832685,-1.3300849,300.95575,1756.2524)"
       cx="111.25298"
       cy="756.37146"
       fx="111.25298"
       fy="756.37146"
       r="83.842659" />
    <radialGradient
       inkscape:collect="always"
       xlink:href="#linearGradient3061"
       id="radialGradient3059"
       gradientUnits="userSpaceOnUse"
       gradientTransform="matrix(-1.7578054,0.01100448,-0.00832685,-1.3300849,300.95575,1756.2524)"
       cx="111.25298"
       cy="756.37146"
       fx="111.25298"
       fy="756.37146"
       r="83.842659" />
  </defs>
  <sodipodi:namedview
     id="base"
     pagecolor="#ffffff"
     bordercolor="#666666"
     borderopacity="1.0"
     inkscape:pageopacity="0.0"
     inkscape:pageshadow="2"
     inkscape:zoom="0.49497475"
     inkscape:cx="112.51815"
     inkscape:cy="185.02601"
     inkscape:document-units="px"
     inkscape:current-layer="layer1"
     showgrid="false"
     inkscape:window-width="1920"
     inkscape:window-height="1134"
     inkscape:window-x="-8"
     inkscape:window-y="-8"
     inkscape:window-maximized="1" />
  <metadata
     id="metadata7">
    <rdf:RDF>
      <cc:Work
         rdf:about="">
        <dc:format>image/svg+xml</dc:format>
        <dc:type
           rdf:resource="http://purl.org/dc/dcmitype/StillImage" />
        <dc:title></dc:title>
      </cc:Work>
    </rdf:RDF>
  </metadata>
  <g
     inkscape:label="Layer 1"
     inkscape:groupmode="layer"
     id="layer1">
    <path
       style="fill:#ff0000;stroke:none"
       d="M 313.34375,9.65625 282.41878,283.87975 163.0625,125.09375 226.12673,300.52125 79.493513,303.70939 240.25,371.25 96.71875,428.4375 259.99381,414.97415 191,555.1875 306.25,413.59375 408.125,643 346.625,432.09375 445.75,561.15625 365.28125,406.0625 599.875,507.28125 419.84375,398.96875 588.0625,426.1875 403.37262,363.28125 492.34375,340.8125 418.62961,333.73049 664.84375,197.375 358.125,318.125 450.59375,154.5625 336.35153,275.00792 z m -1.96875,354 0.125,0 0.0625,0.0625 0.0312,0.0312 -0.0312,0.0937 -0.1875,0.0937 -0.0937,-0.15625 z"
       id="path2985"
       inkscape:connector-curvature="0"
       sodipodi:nodetypes="ccccccccccccccccccccccccccccccccc"
       inkscape:export-filename="C:\Users\PeKay\Documents\GitHub\PKBound\ArtAssets\Flash.png"
       inkscape:export-xdpi="36.378349"
       inkscape:export-ydpi="36.378349" />
    <path
       sodipodi:nodetypes="ccccccccccccccccccccccccccccccccc"
       inkscape:connector-curvature="0"
       id="path3021"
       d="m 350.19461,99.954887 -52.85548,180.035193 -74.96269,-127.43329 32.45059,128.5236 -95.12679,-1.01968 91.74796,53.16204 -142.47715,11.08536 148.09491,23.21374 -82.65191,95.28266 115.27966,-87.5754 -10.11086,148.31993 34.89544,-127.80362 62.33801,147.28681 -44.40187,-162.0047 107.8082,94.61455 -68.29664,-89.34789 78.26641,31.39579 -83.10094,-59.4574 66.47273,0.95939 -50.25538,-18.77752 197.86163,-49.25197 -237.27514,26.98679 95.37592,-97.11864 -102.52782,62.86378 z m -47.55107,241.290183 0.0875,0.0234 0.032,0.0554 0.016,0.0277 -0.0394,0.0597 -0.14878,0.0304 -0.0363,-0.12691 z"
       style="fill:#ff6600;stroke:none"
       inkscape:export-filename="C:\Users\PeKay\Documents\GitHub\PKBound\ArtAssets\Flash.png"
       inkscape:export-xdpi="36.378349"
       inkscape:export-ydpi="36.378349" />
    <path
       style="fill:#ffcc00;stroke:none"
       d="m 301.81095,148.77801 -11.63065,147.68918 -78.59986,-86.30506 45.92764,94.04516 -73.67,14.64648 79.51931,26.19218 -108.29361,31.68268 118.1995,-6.09122 -48.40552,87.03532 74.86752,-86.37378 16.25234,116.24742 6.22751,-104.41577 72.06601,103.69426 -60.59472,-117.97693 98.65476,55.61678 -67.26963,-57.95801 65.57051,11.56077 -73.85917,-32.45959 51.51919,-10.04393 -41.87904,-6.35543 144.89669,-70.16022 -178.96408,59.35076 57.93949,-90.51846 -69.02364,65.2101 z m 2.40674,194.16032 0.0714,0.004 0.0337,0.0376 0.0168,0.0188 -0.0208,0.0525 -0.11003,0.0476 -0.0486,-0.0922 z"
       id="path3023"
       inkscape:connector-curvature="0"
       sodipodi:nodetypes="ccccccccccccccccccccccccccccccccc"
       inkscape:export-filename="C:\Users\PeKay\Documents\GitHub\PKBound\ArtAssets\Flash.png"
       inkscape:export-xdpi="36.378349"
       inkscape:export-ydpi="36.378349" />
    <path
       sodipodi:type="arc"
       style="fill:url(#radialGradient3035);fill-opacity:1;stroke:none"
       id="path3027"
       sodipodi:cx="68.690376"
       sodipodi:cy="751.33673"
       sodipodi:rx="83.842659"
       sodipodi:ry="81.822357"
       d="m 152.53304,751.33673 a 83.842659,81.822357 0 1 1 -167.685323,0 83.842659,81.822357 0 1 1 167.685323,0 z"
       transform="translate(218.18274,58.170425)"
       inkscape:export-filename="C:\Users\PeKay\Documents\GitHub\PKBound\ArtAssets\Demo\OrangeParticle.png"
       inkscape:export-xdpi="132.51881"
       inkscape:export-ydpi="132.51881" />
    <path
       transform="translate(39.079054,52.037724)"
       d="m 152.53304,751.33673 a 83.842659,81.822357 0 1 1 -167.685323,0 83.842659,81.822357 0 1 1 167.685323,0 z"
       sodipodi:ry="81.822357"
       sodipodi:rx="83.842659"
       sodipodi:cy="751.33673"
       sodipodi:cx="68.690376"
       id="path3037"
       style="fill:url(#radialGradient3039);fill-opacity:1;stroke:none"
       sodipodi:type="arc"
       inkscape:export-filename="C:\Users\PeKay\Documents\GitHub\PKBound\ArtAssets\Demo\RedParticle.png"
       inkscape:export-xdpi="132.51881"
       inkscape:export-ydpi="132.51881" />
    <path
       sodipodi:type="arc"
       style="fill:url(#radialGradient3049);fill-opacity:1;stroke:none"
       id="path3047"
       sodipodi:cx="68.690376"
       sodipodi:cy="751.33673"
       sodipodi:rx="83.842659"
       sodipodi:ry="81.822357"
       d="m 152.53304,751.33673 a 83.842659,81.822357 0 1 1 -167.685323,0 83.842659,81.822357 0 1 1 167.685323,0 z"
       transform="translate(394.1124,55.905021)"
       inkscape:export-filename="C:\Users\PeKay\Documents\GitHub\PKBound\ArtAssets\Demo\YellowParticle.png"
       inkscape:export-xdpi="132.51881"
       inkscape:export-ydpi="132.51881" />
    <path
       sodipodi:type="arc"
       style="fill:url(#radialGradient3059);fill-opacity:1;stroke:none"
       id="path3057"
       sodipodi:cx="68.690376"
       sodipodi:cy="751.33673"
       sodipodi:rx="83.842659"
       sodipodi:ry="81.822357"
       d="m 152.53304,751.33673 a 83.842659,81.822357 0 1 1 -167.685323,0 83.842659,81.822357 0 1 1 167.685323,0 z"
       transform="translate(573.44975,61.129097)"
       inkscape:export-filename="C:\Users\PeKay\Documents\GitHub\PKBound\ArtAssets\Demo\BlackParticle.png"
       inkscape:export-xdpi="132.51881"
       inkscape:export-ydpi="132.51881" />
  </g>
</svg>
