<?xml version="1.0" encoding="UTF-8" standalone="no"?>
<!-- Created with Inkscape (http://www.inkscape.org/) -->

<svg
   xmlns:dc="http://purl.org/dc/elements/1.1/"
   xmlns:cc="http://creativecommons.org/ns#"
   xmlns:rdf="http://www.w3.org/1999/02/22-rdf-syntax-ns#"
   xmlns:svg="http://www.w3.org/2000/svg"
   xmlns="http://www.w3.org/2000/svg"
   xmlns:sodipodi="http://sodipodi.sourceforge.net/DTD/sodipodi-0.dtd"
   xmlns:inkscape="http://www.inkscape.org/namespaces/inkscape"
   width="744.09448819"
   height="1052.3622047"
   id="svg2"
   version="1.1"
   inkscape:version="0.48.4 r9939"
   sodipodi:docname="New document 1">
  <defs
     id="defs4" />
  <sodipodi:namedview
     id="base"
     pagecolor="#ffffff"
     bordercolor="#666666"
     borderopacity="1.0"
     inkscape:pageopacity="0.0"
     inkscape:pageshadow="2"
     inkscape:zoom="0.98994949"
     inkscape:cx="335.47443"
     inkscape:cy="683.71688"
     inkscape:document-units="px"
     inkscape:current-layer="layer1"
     showgrid="false"
     inkscape:window-width="1707"
     inkscape:window-height="1006"
     inkscape:window-x="-8"
     inkscape:window-y="-8"
     inkscape:window-maximized="1" />
  <metadata
     id="metadata7">
    <rdf:RDF>
      <cc:Work
         rdf:about="">
        <dc:format>image/svg+xml</dc:format>
        <dc:type
           rdf:resource="http://purl.org/dc/dcmitype/StillImage" />
        <dc:title></dc:title>
      </cc:Work>
    </rdf:RDF>
  </metadata>
  <g
     inkscape:label="Layer 1"
     inkscape:groupmode="layer"
     id="layer1">
    <path
       style="fill:#ff0000;stroke:none"
       d="M 313.34375,9.65625 282.41878,283.87975 163.0625,125.09375 226.12673,300.52125 79.493513,303.70939 240.25,371.25 96.71875,428.4375 259.99381,414.97415 191,555.1875 306.25,413.59375 408.125,643 346.625,432.09375 445.75,561.15625 365.28125,406.0625 599.875,507.28125 419.84375,398.96875 588.0625,426.1875 403.37262,363.28125 492.34375,340.8125 418.62961,333.73049 664.84375,197.375 358.125,318.125 450.59375,154.5625 336.35153,275.00792 z m -1.96875,354 0.125,0 0.0625,0.0625 0.0312,0.0312 -0.0312,0.0937 -0.1875,0.0937 -0.0937,-0.15625 z"
       id="path2985"
       inkscape:connector-curvature="0"
       sodipodi:nodetypes="ccccccccccccccccccccccccccccccccc"
       inkscape:export-filename="C:\Users\PeKay\Documents\GitHub\PKBound\ArtAssets\Flash.png"
       inkscape:export-xdpi="36.378349"
       inkscape:export-ydpi="36.378349" />
    <path
       sodipodi:nodetypes="ccccccccccccccccccccccccccccccccc"
       inkscape:connector-curvature="0"
       id="path3021"
       d="m 350.19461,99.954887 -52.85548,180.035193 -74.96269,-127.43329 32.45059,128.5236 -95.12679,-1.01968 91.74796,53.16204 -142.47715,11.08536 148.09491,23.21374 -82.65191,95.28266 115.27966,-87.5754 -10.11086,148.31993 34.89544,-127.80362 62.33801,147.28681 -44.40187,-162.0047 107.8082,94.61455 -68.29664,-89.34789 78.26641,31.39579 -83.10094,-59.4574 66.47273,0.95939 -50.25538,-18.77752 197.86163,-49.25197 -237.27514,26.98679 95.37592,-97.11864 -102.52782,62.86378 z m -47.55107,241.290183 0.0875,0.0234 0.032,0.0554 0.016,0.0277 -0.0394,0.0597 -0.14878,0.0304 -0.0363,-0.12691 z"
       style="fill:#ff6600;stroke:none"
       inkscape:export-filename="C:\Users\PeKay\Documents\GitHub\PKBound\ArtAssets\Flash.png"
       inkscape:export-xdpi="36.378349"
       inkscape:export-ydpi="36.378349" />
    <path
       style="fill:#ffcc00;stroke:none"
       d="m 301.81095,148.77801 -11.63065,147.68918 -78.59986,-86.30506 45.92764,94.04516 -73.67,14.64648 79.51931,26.19218 -108.29361,31.68268 118.1995,-6.09122 -48.40552,87.03532 74.86752,-86.37378 16.25234,116.24742 6.22751,-104.41577 72.06601,103.69426 -60.59472,-117.97693 98.65476,55.61678 -67.26963,-57.95801 65.57051,11.56077 -73.85917,-32.45959 51.51919,-10.04393 -41.87904,-6.35543 144.89669,-70.16022 -178.96408,59.35076 57.93949,-90.51846 -69.02364,65.2101 z m 2.40674,194.16032 0.0714,0.004 0.0337,0.0376 0.0168,0.0188 -0.0208,0.0525 -0.11003,0.0476 -0.0486,-0.0922 z"
       id="path3023"
       inkscape:connector-curvature="0"
       sodipodi:nodetypes="ccccccccccccccccccccccccccccccccc"
       inkscape:export-filename="C:\Users\PeKay\Documents\GitHub\PKBound\ArtAssets\Flash.png"
       inkscape:export-xdpi="36.378349"
       inkscape:export-ydpi="36.378349" />
  </g>
</svg>
